<?xml version="1.0" encoding="UTF-8"?>
<svg version="1.1" xmlns="http://www.w3.org/2000/svg" width="500" height="500">
<path d="M0 0 C0.70346558 0.00719055 1.40693115 0.0143811 2.13171387 0.02178955 C2.87327728 0.0214975 3.6148407 0.02120544 4.37887573 0.02090454 C6.83550629 0.02230039 9.29183536 0.03787335 11.74841309 0.05352783 C13.44949172 0.05725706 15.1505725 0.06010446 16.85165405 0.06210327 C21.33321035 0.06974684 25.81463741 0.08940149 30.29614258 0.11151123 C34.86745455 0.13195411 39.43878735 0.14110165 44.01013184 0.15118408 C52.98284493 0.17264674 61.95546202 0.20679137 70.92810059 0.24884033 C72.85362115 3.90283933 73.74379465 7.34105714 74.62731934 11.38946533 C74.86098961 12.44961098 74.86098961 12.44961098 75.09938049 13.53117371 C75.60979376 15.85266366 76.11268453 18.17571578 76.61560059 20.49884033 C76.97025228 22.11784457 77.32540159 23.73673987 77.68103027 25.35552979 C78.59249748 29.5104308 79.4978197 33.66664179 80.40093994 37.82336426 C81.67531189 43.68677363 82.95620834 49.54876258 84.23632812 55.41091919 C84.67465718 57.42055312 85.11151998 59.43050176 85.54821777 61.44049072 C87.35125993 69.7124989 89.24381111 77.9538761 91.29919434 86.16680908 C91.87374873 88.98248249 92.14247845 91.38872585 91.92810059 94.24884033 C90.16737475 96.00956617 87.84913768 95.37718817 85.50415039 95.38778687 C84.74686646 95.38576263 83.98958252 95.3837384 83.20935059 95.38165283 C82.04973816 95.38308792 82.04973816 95.38308792 80.86669922 95.384552 C79.22912515 95.38523374 77.5915484 95.3833799 75.95397949 95.37921143 C73.43878138 95.37386304 70.92376185 95.37915659 68.40856934 95.38555908 C66.82132936 95.3848983 65.23408949 95.38361713 63.64685059 95.38165283 C62.88956665 95.38367706 62.13228271 95.38570129 61.35205078 95.38778687 C56.0430519 95.36379165 56.0430519 95.36379165 54.92810059 94.24884033 C54.80569943 92.07536711 54.74824855 89.89819169 54.71716309 87.72149658 C54.68904652 86.35755328 54.66038189 84.99362118 54.63122559 83.62969971 C54.59032493 81.48411964 54.5534416 79.33873808 54.5267334 77.19293213 C54.39884291 67.73454823 54.15662353 58.74928683 49.24060059 50.37384033 C44.42362784 45.94743294 38.83189815 43.53655258 32.28747559 43.09649658 C25.54666404 43.53174766 20.37865463 46.31124542 15.86560059 51.24884033 C11.70970068 56.25547739 11.76277774 60.92597427 11.64685059 67.26055908 C11.62844116 68.02938919 11.61003174 68.7982193 11.59106445 69.59034729 C11.51250413 72.87326398 11.44437998 76.1563749 11.37585449 79.43951416 C11.3242778 81.83830369 11.26700081 84.2369091 11.20935059 86.63555908 C11.19577515 87.38343185 11.18219971 88.13130463 11.16821289 88.90184021 C11.04098236 94.13595856 11.04098236 94.13595856 9.92810059 95.24884033 C7.26184028 95.33739194 4.62162944 95.36408706 1.95544434 95.34649658 C1.15780167 95.34508163 0.360159 95.34366669 -0.46165466 95.34220886 C-3.01927377 95.3365935 -5.57680659 95.32403845 -8.13439941 95.31134033 C-9.86421586 95.30632731 -11.59403368 95.30176406 -13.32385254 95.29766846 C-17.57323494 95.28661908 -21.82255253 95.2693442 -26.07189941 95.24884033 C-27.38379365 91.31315763 -26.40945306 88.38409892 -25.48205566 84.47149658 C-25.21268944 83.29198174 -25.21268944 83.29198174 -24.93788147 82.08863831 C-24.34390229 79.49449706 -23.73903876 76.90301562 -23.13439941 74.31134033 C-22.72058144 72.51092728 -22.30766813 70.71030606 -21.89562988 68.90948486 C-21.04553203 65.19562606 -20.19222738 61.48252542 -19.33703613 57.76983643 C-17.58792828 50.15780839 -15.89246151 42.53397655 -14.20321655 34.90847778 C-13.71149852 32.68971539 -13.21819713 30.47131066 -12.7244873 28.25299072 C-12.56982498 27.55672073 -12.41516266 26.86045074 -12.2558136 26.14308167 C-11.95540704 24.79110681 -11.65431159 23.43928481 -11.35246277 22.08763123 C-10.6205444 18.79467763 -9.91421702 15.49849853 -9.25061035 12.19122314 C-8.99312012 10.92375244 -8.73562988 9.65628174 -8.47033691 8.35040283 C-8.2478125 7.22198975 -8.02528809 6.09357666 -7.79602051 4.93096924 C-6.51281185 0.17799205 -4.58562287 0.01963079 0 0 Z " fill="#FEBA65" transform="translate(206.0718994140625,263.75115966796875)"/>
<path d="M0 0 C1.45610179 1.26617547 2.91166062 2.53371205 4.33203125 3.83984375 C7.54158099 6.0722472 11.17549164 6.39369939 15 6 C18.04753335 4.25055924 18.04753335 4.25055924 20 2 C21.24284687 4.93763806 21.01320986 5.96662773 19.8125 9 C16.69906542 14.15327103 16.69906542 14.15327103 14 16 C8.52153373 16.88184568 3.25281859 15.80717899 -2.0546875 14.4375 C-4.15549829 13.89029052 -4.15549829 13.89029052 -7 14 C-7.03024272 18.28795765 -7.01435222 22.57263035 -6.95727539 26.86010742 C-6.94420485 28.31577805 -6.94333798 29.77161494 -6.95532227 31.22729492 C-7.35278435 39.62952017 -7.35278435 39.62952017 -4.39477539 47.10327148 C-3.12681364 48.14621784 -1.8474837 49.17551884 -0.55639648 50.18969727 C2.84284704 54.14348405 1.69164594 60.0249428 1.4375 64.9375 C1.40591797 66.09830078 1.37433594 67.25910156 1.34179688 68.45507812 C1.25971531 71.30448115 1.13417189 74.15257434 1 77 C6.61 77 12.22 77 18 77 C18.226875 75.80375 18.45375 74.6075 18.6875 73.375 C22.63149294 56.26623062 22.63149294 56.26623062 26.71875 52.35546875 C28.78741597 51.29146228 30.76476009 50.64347816 33 50 C33.93070312 49.62488281 34.86140625 49.24976563 35.8203125 48.86328125 C43.64307409 45.72374627 43.64307409 45.72374627 48 47 C44.65077364 60.59110678 41.28661703 74.17661107 37.625 87.6875 C37.37476074 88.61836426 37.12452148 89.54922852 36.86669922 90.50830078 C36.6348291 91.35505371 36.40295898 92.20180664 36.1640625 93.07421875 C35.96248535 93.81244873 35.7609082 94.55067871 35.55322266 95.3112793 C35 97 35 97 34 98 C31.2001028 98.09519368 28.42493826 98.12553944 25.62475586 98.11352539 C24.30780479 98.11374443 24.30780479 98.11374443 22.96424866 98.1139679 C20.04775565 98.11326844 17.13132567 98.10547455 14.21484375 98.09765625 C12.19845108 98.09579218 10.18205796 98.09436823 8.16566467 98.09336853 C2.84734862 98.08954244 -2.4709403 98.07971139 -7.78924561 98.06866455 C-13.21170688 98.05845238 -18.63417252 98.05387133 -24.05664062 98.04882812 C-34.70443903 98.0380892 -45.35221726 98.02101169 -56 98 C-58.02770533 94.13816177 -59.17449166 90.17381292 -60.3125 85.98046875 C-60.52688721 85.20367264 -60.74127441 84.42687653 -60.9621582 83.62654114 C-61.64533851 81.14791411 -62.3227975 78.66776619 -63 76.1875 C-63.45534112 74.53049228 -63.9110663 72.87359004 -64.3671875 71.21679688 C-65.01286546 68.87132234 -65.65801749 66.52572049 -66.30004883 64.179245 C-66.4936499 63.47193741 -66.68725098 62.76462982 -66.88671875 62.03588867 C-67.07105469 61.35883881 -67.25539062 60.68178894 -67.4453125 59.98422241 C-67.81556474 58.65975992 -68.20107156 57.33946892 -68.6015625 56.02383423 C-69.7456013 52.25411542 -70.15799475 49.82138269 -69 46 C-64.25757934 46.61005105 -60.22343777 47.91565503 -55.8125 49.75 C-54.60207031 50.23984375 -53.39164063 50.7296875 -52.14453125 51.234375 C-45.99626445 54.68656953 -44.84706774 60.94756832 -42.8125 67.3125 C-42.53986328 68.14845703 -42.26722656 68.98441406 -41.98632812 69.84570312 C-41.31872726 71.89535489 -40.65860918 73.9474413 -40 76 C-34.72 76.33 -29.44 76.66 -24 77 C-24.11601562 75.38351563 -24.23203125 73.76703125 -24.3515625 72.1015625 C-24.44542067 69.94282455 -24.53641427 67.78396073 -24.625 65.625 C-24.70878906 64.56410156 -24.79257813 63.50320312 -24.87890625 62.41015625 C-24.98308416 59.01395644 -24.90122236 56.28447865 -24 53 C-21.76464844 50.71777344 -21.76464844 50.71777344 -19.0234375 48.5234375 C-14.46492626 44.50835709 -13.33662557 41.68135172 -12.94082642 35.82461548 C-12.82830689 31.21006301 -12.88332444 26.61384364 -13 22 C-13.02836359 19.16316029 -13.04281991 16.32671558 -13.04931641 13.48974609 C-13.05796514 11.7334128 -13.0818626 9.97707445 -13.12255859 8.22119141 C-13.1551947 6.14731535 -13.08661088 4.07232371 -13 2 C-9.11221928 -1.88778072 -5.15615879 -1.24459005 0 0 Z " fill="#FEBA65" transform="translate(250,157)"/>
</svg>
